<?xml version="1.0" standalone="no"?><!DOCTYPE svg PUBLIC "-//W3C//DTD SVG 1.1//EN" "http://www.w3.org/Graphics/SVG/1.1/DTD/svg11.dtd"><svg t="1782143980634" class="icon" viewBox="0 0 1024 1024" version="1.1" xmlns="http://www.w3.org/2000/svg" p-id="27625" xmlns:xlink="http://www.w3.org/1999/xlink" width="200" height="200"><path d="M503.606557 16.786885c-279.781421 0-503.606557 223.825137-503.606557 503.606558s223.825137 503.606557 503.606557 503.606557 503.606557-223.825137 503.606558-503.606557-223.825137-503.606557-503.606558-503.606558z m195.846995 615.519126l-173.464481 173.464481s-5.595628 5.595628-11.191257 5.595628h-22.382513c-5.595628 0-5.595628-5.595628-11.191257-5.595628l-173.464481-173.464481c-11.191257-11.191257-11.191257-33.57377 0-50.360656s33.57377-11.191257 50.360656 0l111.912568 111.912568V262.994536c0-22.382514 16.786885-39.169399 33.57377-39.169399s33.57377 16.786885 33.573771 33.57377v436.459016l111.912568-111.912568c11.191257-11.191257 33.57377-11.191257 50.360656 0s16.786885 39.169399 0 50.360656z" fill="#36ab60" p-id="27626"></path></svg>