<?xml version="1.0" standalone="no"?><!DOCTYPE svg PUBLIC "-//W3C//DTD SVG 1.1//EN" "http://www.w3.org/Graphics/SVG/1.1/DTD/svg11.dtd"><svg t="1782141910605" class="icon" viewBox="0 0 1024 1024" version="1.1" xmlns="http://www.w3.org/2000/svg" p-id="13310" xmlns:xlink="http://www.w3.org/1999/xlink" width="200" height="200"><path d="M512 34.133333C249.173333 34.133333 34.133333 249.173333 34.133333 512s215.04 477.866667 477.866667 477.866667 477.866667-215.04 477.866667-477.866667S774.826667 34.133333 512 34.133333z m256 570.026667H365.226667l81.92 56.32c15.36 10.24 18.773333 32.426667 8.533333 47.786667-6.826667 8.533333-17.066667 15.36-27.306667 15.36-6.826667 0-13.653333-1.706667-18.773333-6.826667l-170.666667-119.466667c-11.946667-8.533333-17.066667-23.893333-13.653333-37.546666 5.12-13.653333 17.066667-23.893333 32.426667-23.893334H768c18.773333 0 34.133333 15.36 34.133333 34.133334s-15.36 34.133333-34.133333 34.133333z m32.426667-139.946667c-5.12 13.653333-17.066667 23.893333-32.426667 23.893334H256c-18.773333 0-34.133333-15.36-34.133333-34.133334s15.36-34.133333 34.133333-34.133333h402.773333l-81.92-56.32c-15.36-10.24-18.773333-32.426667-8.533333-47.786667 5.12-6.826667 13.653333-11.946667 22.186667-13.653333 8.533333-1.706667 18.773333 0 25.6 5.12l170.666666 119.466667c11.946667 8.533333 17.066667 23.893333 13.653334 37.546666z" fill="#3f81c1" p-id="13311"></path></svg>