<?xml version="1.0" standalone="no"?><!DOCTYPE svg PUBLIC "-//W3C//DTD SVG 1.1//EN" "http://www.w3.org/Graphics/SVG/1.1/DTD/svg11.dtd"><svg t="1782227810916" class="icon" viewBox="0 0 1546 1024" version="1.1" xmlns="http://www.w3.org/2000/svg" p-id="103766" xmlns:xlink="http://www.w3.org/1999/xlink" width="301.953125" height="200"><path d="M11.264 1017.856h1521.152V6.144H11.264v1011.712z m1524.736 3.584v-3.584 3.584zM5.12 1024V0h1533.44v1024H5.12z" fill="#353636" p-id="103767"></path><path d="M8.704 2.56H1536v1017.856H8.704V2.56z" fill="#DE2910" p-id="103768"></path><path d="M765.44 507.392l9.216 9.216-9.216 9.216-9.216-9.216 9.216-9.216z" fill="#FF0000" p-id="103769"></path><path d="M765.44 516.608c-85.504-34.816-126.464-142.848-90.624-227.84 19.456-46.592 91.648-111.104 180.224-88.576-34.304 17.408-57.344 40.96-34.816 74.752 24.576 36.864 12.8 92.672-34.304 115.2-37.376 16.896-69.632 81.408-20.48 126.464z" fill="#FFFFFF" p-id="103770"></path><path d="M763.904 518.144c-17.92-14.848-46.592-30.208-53.76-89.088l-1.024-18.944c0-47.616 23.04-74.752 23.04-74.752l3.072-0.512v3.072s-5.632 6.144-11.264 18.432c-5.632 12.288-11.264 30.208-11.264 53.248l1.024 17.92c7.168 57.344 33.792 71.168 52.224 86.016l0.512 3.072-1.536 0.512h-1.024v1.024z m-25.6-232.96l14.848 13.312 16.896-10.24-8.192 17.92 14.848 13.312-19.456-2.048-8.192 17.92-4.096-18.944-19.456-2.048 16.896-10.24-4.096-18.944z" fill="#FF0000" p-id="103771"></path><path d="M765.44 516.608c6.656-92.16 96.768-164.352 188.416-156.672 50.176 4.096 133.632 53.248 139.264 144.384-26.624-27.648-56.32-41.984-81.408-10.24-27.648 34.816-83.968 40.96-119.808 2.56-27.648-29.696-98.816-40.96-126.464 19.968z" fill="#FFFFFF" p-id="103772"></path><path d="M763.392 515.584c8.192-21.504 14.336-54.272 68.096-78.848l17.408-6.656c45.056-14.336 77.824-1.024 77.824-0.512l1.024 2.56-2.56 1.024s-7.68-3.072-20.992-4.608c-13.312-1.536-32.256-1.536-54.272 5.632l-16.896 6.656c-52.224 24.576-57.344 54.272-66.048 76.8l-2.56 1.536-1.536-1.536 0.512-2.048zM976.384 419.84l-7.68 17.92 14.848 13.312-19.456-2.048-8.192 17.92-4.096-19.456-19.456-2.048 16.896-10.24-4.096-19.456 14.848 13.312 16.384-9.216z" fill="#FF0000" p-id="103773"></path><path d="M765.44 516.608c89.6-22.016 185.344 41.984 206.336 132.096 11.264 49.152-9.728 143.872-94.72 177.152 17.92-33.792 22.528-66.56-14.848-80.896-41.472-15.872-64.512-67.584-38.912-113.664 19.968-35.84 8.192-107.008-57.856-114.688z" fill="#FFFFFF" p-id="103774"></path><path d="M765.44 514.56c23.04 1.536 55.808-3.072 95.744 40.448l11.776 14.336c27.648 38.4 25.088 73.728 25.088 74.24l-2.56 2.048-2.048-2.048s0.512-8.704-2.048-21.504c-2.56-13.312-8.704-31.232-22.016-49.664l-11.264-14.336c-39.424-42.496-69.12-37.888-92.672-39.424l-2.048-2.048 1.024-1.536 1.024-0.512z m156.16 174.08l-19.456-2.048-8.192 17.92-4.096-19.456-19.456-2.048 16.896-9.728-4.096-19.456 14.848 13.312 16.896-10.24-8.192 17.92 14.848 13.824z" fill="#FF0000" p-id="103775"></path><path d="M765.44 516.608c48.128 78.848 17.408 189.952-61.952 237.568-43.008 26.112-139.264 34.816-197.632-35.84 37.376 6.656 70.144 1.024 72.192-39.424 2.048-44.032 44.544-82.432 95.744-72.192 40.448 8.192 104.448-24.576 91.648-90.112z" fill="#FFFFFF" p-id="103776"></path><path d="M767.488 516.096c6.144 22.528 19.968 52.224-9.216 103.936l-10.24 15.872c-28.16 38.4-62.464 46.592-62.976 46.592l-2.56-1.536 1.536-2.56s8.192-2.048 19.968-8.704c11.776-6.656 26.624-17.92 40.448-36.352l9.728-15.36c28.16-50.176 14.848-77.312 8.704-100.864l1.536-2.56 1.536 0.512 1.536 1.024zM650.24 718.848l-4.096-19.456-19.456-2.048 16.896-9.728-4.096-19.456 14.848 13.312 16.896-9.728-8.192 17.92 14.336 13.312-19.456-2.048-7.68 17.92z" fill="#FF0000" p-id="103777"></path><path d="M765.44 516.608c-59.904 70.144-175.104 74.752-244.224 13.312-37.888-33.28-75.776-122.368-26.624-199.168 5.12 37.888 20.48 67.072 59.392 56.832 42.496-11.264 91.648 17.408 97.792 69.12 4.608 40.96 55.296 92.16 113.664 59.904z" fill="#FFFFFF" p-id="103778"></path><path d="M766.464 518.144c-19.456 12.288-43.52 34.816-101.376 23.04l-17.92-4.608c-45.056-14.848-62.976-45.568-63.488-45.568l0.512-3.072 3.072 0.512s4.096 7.168 14.336 16.384c9.728 9.216 25.088 19.968 47.104 27.648l17.408 4.608c56.32 11.264 77.824-9.728 98.304-22.528l3.072 0.512v2.048l-1.024 1.024z m-228.352-49.152l16.896-9.728-4.096-19.456 14.848 13.312 16.896-9.728-8.192 17.92 14.848 13.312-19.456-2.048-8.192 17.92-4.096-19.456-19.456-2.048z" fill="#FF0000" p-id="103779"></path></svg>