<?xml version="1.0" standalone="no"?><!DOCTYPE svg PUBLIC "-//W3C//DTD SVG 1.1//EN" "http://www.w3.org/Graphics/SVG/1.1/DTD/svg11.dtd"><svg t="1782141764762" class="icon" viewBox="0 0 1024 1024" version="1.1" xmlns="http://www.w3.org/2000/svg" p-id="11889" xmlns:xlink="http://www.w3.org/1999/xlink" width="200" height="200"><path d="M337.92 598.016c-25.6 0-46.08 20.992-46.08 46.08s20.992 46.08 46.08 46.08 46.08-20.992 46.08-46.08-20.48-46.08-46.08-46.08zM538.112 416.768c-8.192 2.56-16.896 4.096-26.112 4.096s-17.92-1.536-26.112-4.096L387.072 578.56c14.848 11.264 25.6 27.136 30.208 45.568h188.928c4.608-18.432 15.36-34.304 30.208-45.568l-98.304-161.792zM512 385.024c25.6 0 46.08-20.992 46.08-46.08s-20.992-46.08-46.08-46.08c-25.6 0-46.08 20.992-46.08 46.08s20.48 46.08 46.08 46.08z" p-id="11890" fill="#e16531"></path><path d="M512 66.56c-245.76 0-445.44 199.68-445.44 445.44s199.68 445.44 445.44 445.44 445.44-199.68 445.44-445.44-199.68-445.44-445.44-445.44z m174.08 659.456c-39.936 0-73.216-28.672-80.384-66.048H418.304c-7.68 37.888-40.448 66.048-80.384 66.048-45.056 0-81.92-36.864-81.92-81.92s36.864-81.92 81.92-81.92c5.632 0 11.264 0.512 16.384 1.536l100.864-165.376c-15.36-14.848-25.6-35.84-25.6-59.392 0-45.056 36.864-81.92 81.92-81.92s81.92 36.864 81.92 81.92c0 23.04-9.728 44.032-25.6 59.392l100.864 165.376c5.12-1.024 10.752-1.536 16.384-1.536 45.056 0 81.92 36.864 81.92 81.92s-35.84 81.92-80.896 81.92z" p-id="11891" fill="#e16531"></path><path d="M686.08 598.016c-25.6 0-46.08 20.992-46.08 46.08s20.992 46.08 46.08 46.08 46.08-20.992 46.08-46.08-20.48-46.08-46.08-46.08z" p-id="11892" fill="#e16531"></path></svg>