<?xml version="1.0" standalone="no"?><!DOCTYPE svg PUBLIC "-//W3C//DTD SVG 1.1//EN" "http://www.w3.org/Graphics/SVG/1.1/DTD/svg11.dtd"><svg t="1782229083280" class="icon" viewBox="0 0 1024 1024" version="1.1" xmlns="http://www.w3.org/2000/svg" p-id="122256" xmlns:xlink="http://www.w3.org/1999/xlink" width="200" height="200"><path d="M512 112.64c-220.672 0-399.36 178.688-399.36 399.36S291.328 911.36 512 911.36 911.36 732.672 911.36 512 732.672 112.64 512 112.64z m-180.736 460.8c-34.304 0-61.44-27.648-61.44-61.44s27.648-61.44 61.44-61.44c34.304 0 61.44 27.648 61.44 61.44s-27.136 61.44-61.44 61.44z m184.32 0c-34.304 0-61.44-27.648-61.44-61.44s27.648-61.44 61.44-61.44 61.44 27.648 61.44 61.44-27.648 61.44-61.44 61.44z m182.272 0c-34.304 0-61.44-27.648-61.44-61.44s27.648-61.44 61.44-61.44 61.44 27.648 61.44 61.44-27.648 61.44-61.44 61.44z" p-id="122257" fill="#0061b2"></path></svg>