<?xml version="1.0" standalone="no"?><!DOCTYPE svg PUBLIC "-//W3C//DTD SVG 1.1//EN" "http://www.w3.org/Graphics/SVG/1.1/DTD/svg11.dtd"><svg t="1782144658147" class="icon" viewBox="0 0 1468 1024" version="1.1" xmlns="http://www.w3.org/2000/svg" p-id="67730" xmlns:xlink="http://www.w3.org/1999/xlink" width="286.71875" height="200"><path d="M1027.582507 169.572012H441.245481c-112.251895 0-203.008746 90.756851-203.008746 203.008746v448.410496c0 112.251895 90.756851 203.008746 203.008746 203.008746h586.337026c112.251895 0 203.008746-90.756851 203.008747-203.008746V372.580758c0-112.251895-90.756851-203.008746-203.008747-203.008746z m-705.753936 203.008746c0-65.6793 53.737609-119.41691 119.41691-119.41691h586.337026c65.6793 0 119.41691 53.737609 119.41691 119.41691v448.410496c0 65.6793-53.737609 119.41691-119.41691 119.416909H441.245481c-65.6793 0-119.41691-53.737609-119.41691-119.416909V372.580758z" p-id="67731" fill="#0061b2"></path><path d="M1003.102041 289.586006H459.755102c-56.125948 0-101.504373 45.378426-101.504373 101.504373v411.988338c0 13.732945 2.388338 26.868805 7.762099 39.40758 5.373761 11.941691 12.538776 22.689213 21.495044 32.242566 9.553353 9.553353 20.300875 16.718367 32.242565 21.495044 12.538776 5.373761 25.674636 7.762099 39.40758 7.762099h543.346939c56.125948 0 101.504373-45.378426 101.504373-101.504373v-411.988339c0-13.732945-2.388338-26.868805-7.762099-39.40758-5.373761-11.941691-12.538776-22.689213-21.495043-32.242565-9.553353-9.553353-20.300875-16.718367-32.242566-21.495044-12.538776-5.373761-25.674636-7.762099-39.40758-7.762099z m-632.909621 101.504373c0-49.558017 40.004665-89.562682 89.562682-89.562682h543.346939c11.941691 0 23.883382 2.388338 34.630904 7.165014 10.747522 4.776676 20.300875 10.747522 28.660058 19.106706 8.359184 8.359184 14.927114 17.912536 19.106705 28.660058 4.776676 11.344606 7.165015 22.689213 7.165015 34.630904v411.988338c0 49.558017-40.004665 89.562682-89.562682 89.562682H459.755102c-11.941691 0-23.883382-2.388338-34.630904-7.165014-10.747522-4.776676-20.300875-10.747522-28.660058-19.106706-8.359184-8.359184-14.927114-17.912536-19.106706-28.660058-4.776676-11.344606-7.165015-22.689213-7.165014-34.630904v-411.988338zM168.974927 447.216327h39.40758v-83.591837h-39.40758c-88.965598 0-161.212828 72.24723-161.212828 161.212828v171.96035c0 88.965598 72.24723 161.212828 161.212828 161.212828h39.40758v-83.591837h-39.40758c-42.990087 0-77.620991-34.630904-77.620991-77.620991V524.837318c0-42.393003 34.630904-77.620991 77.620991-77.620991zM1303.435569 443.633819h-39.407581v-83.591836h39.407581c88.965598 0 161.212828 72.24723 161.212828 161.212827v171.96035c0 88.965598-72.24723 161.212828-161.212828 161.212828h-39.407581v-83.591836h39.407581c42.990087 0 77.620991-34.630904 77.620991-77.620992V521.25481c0-42.393003-34.630904-77.620991-77.620991-77.620991z" p-id="67732" fill="#0061b2"></path><path d="M568.42449 470.502624c40.004665 0 72.24723 32.242566 72.24723 72.24723v115.237318c0 40.004665-32.242566 72.24723-72.24723 72.24723-40.004665 0-72.24723-32.242566-72.247231-72.24723V542.749854c0-40.004665 32.242566-72.24723 72.247231-72.24723zM907.568513 470.502624c40.004665 0 72.24723 32.242566 72.24723 72.24723v115.237318c0 40.004665-32.242566 72.24723-72.24723 72.24723-40.004665 0-72.24723-32.242566-72.24723-72.24723V542.749854c0-40.004665 32.242566-72.24723 72.24723-72.24723z" p-id="67733" fill="#0061b2"></path><path d="M472.293878 76.426822c-5.970845-7.762099-9.553353-17.315452-9.553353-27.465889 0-24.480466 20.300875-44.781341 44.781341-44.781341 14.330029 0 27.465889 7.165015 35.825073 17.912536l118.819825 154.644898c5.970845 7.762099 9.553353 17.315452 9.553353 27.465889 0 24.480466-20.300875 44.781341-44.781341 44.781342-14.330029 0-27.465889-7.165015-35.825073-17.912537L472.293878 76.426822zM949.364431 22.092128c8.359184-10.747522 20.897959-17.912536 35.825073-17.912536 24.480466 0 44.781341 20.300875 44.781341 44.781341 0 10.150437-3.582507 20.300875-9.553352 27.465889L901.597668 231.07172c-8.359184 10.747522-20.897959 17.912536-35.825073 17.912537-24.480466 0-44.781341-20.300875-44.781341-44.781342 0-10.150437 3.582507-20.300875 9.553352-27.465889L949.364431 22.092128z" p-id="67734" fill="#0061b2"></path></svg>