<?xml version="1.0" standalone="no"?><!DOCTYPE svg PUBLIC "-//W3C//DTD SVG 1.1//EN" "http://www.w3.org/Graphics/SVG/1.1/DTD/svg11.dtd"><svg t="1782228695067" class="icon" viewBox="0 0 1568 1024" version="1.1" xmlns="http://www.w3.org/2000/svg" p-id="110532" xmlns:xlink="http://www.w3.org/1999/xlink" width="306.25" height="200"><path d="M1555.872 0v885.024c0 78.016-63.2 138.976-140.992 138.976H141.024C63.232 1024 0.032 960.608 0.032 885.024V0h1555.872z" fill="#F42A41" p-id="110533"></path><path d="M0 1024h1555.872V512H0v512zM223.648 263.328c0-104.832 82.656-192.608 187.2-195.04-21.888-7.328-43.744-12.192-68.064-12.192-114.272 0-206.624 92.64-206.624 207.232s92.384 207.232 206.624 207.232c24.32 0 46.176-4.864 68.064-12.192-104.544-4.864-187.2-90.208-187.2-195.04z" fill="#FFFFFF" p-id="110534"></path><path d="M340.352 246.24l26.752 21.952-9.728-36.576 29.184-21.952h-36.48l-9.728-34.144-12.16 34.144H294.144l29.184 21.952-12.16 36.576 29.184-21.952z m267.392-36.576h-36.48l-9.728-34.144-12.16 34.144h-34.048l29.184 21.952-12.16 36.576 29.184-21.952 26.752 21.952-9.728-36.576 29.184-21.952z m-140.992-60.928l29.184-19.52h-34.048l-12.16-36.576-9.728 36.576h-34.048l26.752 19.52-9.728 36.576 26.752-21.952 29.184 21.952-12.16-36.576z m-75.36 192.608L381.664 307.2l-12.16 34.144h-34.048l29.184 21.952-12.16 36.576 29.184-21.952 26.752 21.952-9.728-36.576 29.184-21.952h-36.48z m138.56 0L520.224 307.2l-12.16 34.144h-34.048l29.184 21.952-12.16 36.576 29.184-21.952 26.752 21.952-9.728-36.576 26.752-21.952h-34.048z" fill="#FFFFFF" p-id="110535"></path></svg>