<?xml version="1.0" standalone="no"?><!DOCTYPE svg PUBLIC "-//W3C//DTD SVG 1.1//EN" "http://www.w3.org/Graphics/SVG/1.1/DTD/svg11.dtd"><svg t="1782226660311" class="icon" viewBox="0 0 1024 1024" version="1.1" xmlns="http://www.w3.org/2000/svg" p-id="77937" xmlns:xlink="http://www.w3.org/1999/xlink" width="200" height="200"><path d="M512 0C229.255529 0 0 229.255529 0 512s229.255529 512 512 512 512-229.255529 512-512S794.864941 0 512 0z m302.381176 675.719529a19.049412 19.049412 0 0 1-4.336941 4.517647l-212.028235 156.792471a19.742118 19.742118 0 0 1-31.623529-15.902118v-100.894117h-173.176471q-185.223529 1.084235-201.185882-183.115294c10.721882 11.203765 57.584941 77.462588 201.185882 77.462588q143.480471 0 173.176471-3.252706V514.409412a19.772235 19.772235 0 0 1 19.757176-19.757177 20.449882 20.449882 0 0 1 11.444706 3.614118l211.968 149.744941a19.907765 19.907765 0 0 1 4.818823 27.708235zM630.964706 409.238588q-143.480471 0-173.176471 3.252706v96.858353a19.772235 19.772235 0 0 1-19.757176 19.757177 20.449882 20.449882 0 0 1-11.444706-3.614118L214.437647 375.868235a19.727059 19.727059 0 0 1-4.698353-27.587764 19.049412 19.049412 0 0 1 4.336941-4.517647l211.907765-156.792471a19.742118 19.742118 0 0 1 31.623529 15.902118v100.894117h173.176471q185.223529-1.084235 201.185882 183.115294c-10.721882-11.444706-57.584941-77.703529-201.065411-77.703529z" fill="#4f68b0" p-id="77938"></path></svg>